<?xml version="1.0" encoding="UTF-8"?>
<svg version="1.1" xmlns="http://www.w3.org/2000/svg" width="48" height="48">
<path d="M0 0 C1.13731567 0.01027222 1.13731567 0.01027222 2.29760742 0.02075195 C9.41501614 0.22559707 13.8682915 1.6182915 19.0625 6.8125 C23.21873615 13.52641993 23.73884123 20.73688661 22.6875 28.4375 C21.191159 31.96164104 19.22791187 34.59578347 16.6875 37.4375 C15.8625 38.448125 15.0375 39.45875 14.1875 40.5 C9.33525761 44.18719211 2.37705264 43.11999118 -3.3125 42.4375 C-9.72753284 40.79708446 -13.6881676 37.92891273 -17.3125 32.4375 C-20.07952344 25.36731199 -20.98057116 17.66625566 -18.14453125 10.4765625 C-13.58030591 2.47450162 -9.3035336 -0.12713914 0 0 Z " fill="#595E76" transform="translate(22.3125,2.5625)"/>
<path d="M0 0 C1.13731567 0.01027222 1.13731567 0.01027222 2.29760742 0.02075195 C9.41501614 0.22559707 13.8682915 1.6182915 19.0625 6.8125 C23.21873615 13.52641993 23.73884123 20.73688661 22.6875 28.4375 C21.191159 31.96164104 19.22791187 34.59578347 16.6875 37.4375 C15.8625 38.448125 15.0375 39.45875 14.1875 40.5 C9.33525761 44.18719211 2.37705264 43.11999118 -3.3125 42.4375 C-9.72753284 40.79708446 -13.6881676 37.92891273 -17.3125 32.4375 C-20.07952344 25.36731199 -20.98057116 17.66625566 -18.14453125 10.4765625 C-13.58030591 2.47450162 -9.3035336 -0.12713914 0 0 Z M-14.5625 7.875 C-18.01268188 12.92705204 -19.02216321 17.33439638 -18.3125 23.4375 C-17.07144367 28.86372437 -15.37483682 33.49122995 -11.3125 37.4375 C-7.3522673 39.84807643 -3.91128424 40.97762158 0.6875 41.4375 C1.96625 41.6025 3.245 41.7675 4.5625 41.9375 C9.18825702 41.86674272 11.64984182 39.64090981 14.85546875 36.4921875 C18.85856024 32.00257956 21.93197317 28.13402561 22.1875 21.9375 C21.8082075 15.99183375 20.15507992 11.32438847 16.5 6.625 C10.21111988 1.7336488 4.25812302 0.86989458 -3.5390625 1.0859375 C-8.63615104 1.73204732 -11.19729486 4.22936109 -14.5625 7.875 Z " fill="#1B1C2A" transform="translate(22.3125,2.5625)"/>
<path d="M0 0 C2.875 1.625 2.875 1.625 5 4 C5.5625 6.9375 5.5625 6.9375 5 10 C3.68678142 11.6825613 2.35386936 13.34997172 1 15 C0.83286431 17.62531524 0.83286431 17.62531524 1 20 C0.34 20.66 -0.32 21.32 -1 22 C-3.125 21.625 -3.125 21.625 -5 21 C-5.36717663 13.5340751 -5.36717663 13.5340751 -3.625 11 C-2 10 -2 10 0 10 C-0.33 8.68 -0.66 7.36 -1 6 C-3.86724686 6.57344937 -4.8614515 6.8614515 -7 9 C-9.125 8.625 -9.125 8.625 -11 8 C-10.67842796 5.02545866 -10.37860258 3.40664722 -8.3125 1.1875 C-5.24756099 -0.3863876 -3.40910465 -0.48701495 0 0 Z " fill="#2D2F42" transform="translate(26,9)"/>
<path d="M0 0 C1.65 0.33 3.3 0.66 5 1 C4.67 2.65 4.34 4.3 4 6 C2.35 5.67 0.7 5.34 -1 5 C-0.67 3.35 -0.34 1.7 0 0 Z " fill="#2C2F41" transform="translate(22,32)"/>
</svg>
