<?xml version="1.0" encoding="UTF-8"?>
<svg version="1.1" xmlns="http://www.w3.org/2000/svg" width="48" height="48">
<path d="M0 0 C5.33254581 4.09124061 9.04348609 9.70036232 9.9296875 16.42578125 C10.17257007 22.57176629 9.27645441 28.33086111 5.0625 33.0234375 C-0.90707011 38.39475004 -6.23689674 39.78218423 -14.2109375 39.64453125 C-20.49103826 38.87999724 -25.46670129 36.1977054 -29.85546875 31.69921875 C-30.35046875 30.89484375 -30.84546875 30.09046875 -31.35546875 29.26171875 C-31.70867188 28.69066406 -32.061875 28.11960937 -32.42578125 27.53125 C-34.7090045 21.95749913 -34.23329428 14.47874981 -32.66796875 8.7421875 C-30.51776292 4.05653063 -27.57601298 1.16334291 -23.35546875 -1.73828125 C-16.04052278 -4.21900206 -6.66260092 -3.99756055 0 0 Z " fill="#595E76" transform="translate(36.35546875,5.73828125)"/>
<path d="M0 0 C2.5 0.125 2.5 0.125 3.5 1.125 C3.64115161 3.79558851 3.54247107 6.44932238 3.5 9.125 C5.81 9.125 8.12 9.125 10.5 9.125 C10.88218767 10.78114657 11.21395102 12.44957024 11.5 14.125 C10.5 15.125 10.5 15.125 8.65234375 15.22265625 C6.6015625 15.19010417 4.55078125 15.15755208 2.5 15.125 C2.5 17.435 2.5 19.745 2.5 22.125 C0.84385343 22.50718767 -0.82457024 22.83895102 -2.5 23.125 C-4.46822886 21.15677114 -4.16248381 17.77691291 -4.5 15.125 C-6.81 14.795 -9.12 14.465 -11.5 14.125 C-11.88218767 12.46885343 -12.21395102 10.80042976 -12.5 9.125 C-11.5 8.125 -11.5 8.125 -9.65234375 8.02734375 C-7.6015625 8.05989583 -5.55078125 8.09244792 -3.5 8.125 C-3.520625 6.990625 -3.54125 5.85625 -3.5625 4.6875 C-3.4833187 0.17416594 -3.4833187 0.17416594 0 0 Z " fill="#262838" transform="translate(24.5,11.875)"/>
<path d="M0 0 C5.33254581 4.09124061 9.04348609 9.70036232 9.9296875 16.42578125 C10.17257007 22.57176629 9.27645441 28.33086111 5.0625 33.0234375 C-0.90707011 38.39475004 -6.23689674 39.78218423 -14.2109375 39.64453125 C-20.49103826 38.87999724 -25.46670129 36.1977054 -29.85546875 31.69921875 C-30.35046875 30.89484375 -30.84546875 30.09046875 -31.35546875 29.26171875 C-31.70867188 28.69066406 -32.061875 28.11960937 -32.42578125 27.53125 C-34.7090045 21.95749913 -34.23329428 14.47874981 -32.66796875 8.7421875 C-30.51776292 4.05653063 -27.57601298 1.16334291 -23.35546875 -1.73828125 C-16.04052278 -4.21900206 -6.66260092 -3.99756055 0 0 Z M-28.23046875 4.07421875 C-32.09473956 9.87062496 -33.35916263 15.39027601 -32.35546875 22.26171875 C-30.95085673 27.46427611 -29.0372857 31.06348373 -24.59765625 34.2265625 C-18.38143483 37.53720674 -13.34675569 39.53362971 -6.33203125 37.74609375 C-0.43064346 35.85940472 2.8793994 32.75724999 6.45703125 27.69921875 C8.46000645 21.90113264 9.2249845 15.51745245 6.47265625 9.84765625 C2.66722657 4.61028654 -1.98723379 -0.0014899 -8.35546875 -1.73828125 C-15.73125727 -2.54522932 -23.05759661 -1.68854232 -28.23046875 4.07421875 Z " fill="#1B1D2A" transform="translate(36.35546875,5.73828125)"/>
<path d="M0 0 C0.99 0 1.98 0 3 0 C3 2.64 3 5.28 3 8 C4.11375 7.95875 5.2275 7.9175 6.375 7.875 C10 8 10 8 12 10 C11.34 10.66 10.68 11.32 10 12 C6.375 11.625 6.375 11.625 3 11 C3 13.97 3 16.94 3 20 C1.68 19.67 0.36 19.34 -1 19 C-1.33 16.69 -1.66 14.38 -2 12 C-4.31 11.67 -6.62 11.34 -9 11 C-9 10.01 -9 9.02 -9 8 C-6.36 8 -3.72 8 -1 8 C-0.67 5.36 -0.34 2.72 0 0 Z " fill="#35394E" transform="translate(23,14)"/>
<path d="M0 0 C2.5 0.125 2.5 0.125 3.5 1.125 C3.64115161 3.79558851 3.54247107 6.44932238 3.5 9.125 C2.51 9.62 2.51 9.62 1.5 10.125 C1.5 7.485 1.5 4.845 1.5 2.125 C0.51 2.125 -0.48 2.125 -1.5 2.125 C-1.5 4.105 -1.5 6.085 -1.5 8.125 C-1.83 8.125 -2.16 8.125 -2.5 8.125 C-2.88063221 5.7989143 -3.21269945 3.46444736 -3.5 1.125 C-2.5 0.125 -2.5 0.125 0 0 Z " fill="#2E3042" transform="translate(24.5,11.875)"/>
</svg>
