<?xml version="1.0" encoding="UTF-8"?>
<svg version="1.1" xmlns="http://www.w3.org/2000/svg" width="48" height="48">
<path d="M0 0 C1.15616821 -0.00688843 1.15616821 -0.00688843 2.33569336 -0.01391602 C7.75272086 0.00136043 7.75272086 0.00136043 10 1.125 C10 4.755 10 8.385 10 12.125 C9.34 12.455 8.68 12.785 8 13.125 C8.01160156 14.27097656 8.02320313 15.41695312 8.03515625 16.59765625 C8.04454242 18.12760252 8.05364173 19.65755058 8.0625 21.1875 C8.07087891 21.93966797 8.07925781 22.69183594 8.08789062 23.46679688 C8.10804678 28.12286818 7.94473102 32.55582922 7 37.125 C4.089478 38.580261 1.52443589 38.25485887 -1.72265625 38.2578125 C-2.38333603 38.25876923 -3.04401581 38.25972595 -3.72471619 38.26071167 C-5.12092179 38.26139216 -6.51713056 38.259547 -7.91333008 38.25537109 C-10.05752614 38.25001243 -12.20151353 38.25532479 -14.34570312 38.26171875 C-15.7005213 38.26105811 -17.05533934 38.25977725 -18.41015625 38.2578125 C-19.64902588 38.25668457 -20.88789551 38.25555664 -22.16430664 38.25439453 C-25 38.125 -25 38.125 -26 37.125 C-26.08737645 35.27130389 -26.10698153 33.41432459 -26.09765625 31.55859375 C-26.09282227 29.8715332 -26.09282227 29.8715332 -26.08789062 28.15039062 C-26.07951172 26.96638672 -26.07113281 25.78238281 -26.0625 24.5625 C-26.05798828 23.37462891 -26.05347656 22.18675781 -26.04882812 20.96289062 C-26.03699675 18.01687774 -26.02051287 15.07096319 -26 12.125 C-26.99 12.125 -27.98 12.125 -29 12.125 C-29.02688151 10.47925434 -29.04634123 8.83338587 -29.0625 7.1875 C-29.07410156 6.27097656 -29.08570313 5.35445312 -29.09765625 4.41015625 C-29 2.125 -29 2.125 -28 1.125 C-25.34784898 0.87835909 -22.72110054 0.69608973 -20.0625 0.5625 C-19.26650391 0.5207666 -18.47050781 0.4790332 -17.65039062 0.43603516 C-11.76715734 0.15340924 -5.88977401 0.0198026 0 0 Z M-14 17.125 C-13.67 17.785 -13.34 18.445 -13 19.125 C-10.36 19.125 -7.72 19.125 -5 19.125 C-5 18.465 -5 17.805 -5 17.125 C-7.97 17.125 -10.94 17.125 -14 17.125 Z " fill="#4A4E63" transform="translate(34,4.875)"/>
<path d="M0 0 C0.75728394 0.00202423 1.51456787 0.00404846 2.2947998 0.00613403 C3.06787476 0.00517731 3.84094971 0.00422058 4.63745117 0.00323486 C6.27502524 0.00255313 7.91260199 0.00440697 9.5501709 0.00857544 C12.06536901 0.01392382 14.58038854 0.00863027 17.09558105 0.00222778 C18.68282103 0.00288857 20.2700609 0.00416973 21.8572998 0.00613403 C22.99322571 0.00309769 22.99322571 0.00309769 24.15209961 0 C29.46109849 0.02399522 29.46109849 0.02399522 30.5760498 1.13894653 C30.61697918 3.47192086 30.61846704 5.80599878 30.5760498 8.13894653 C26.44996946 9.12963869 22.57892824 9.26798444 18.3416748 9.27175903 C17.32372833 9.27319412 17.32372833 9.27319412 16.28521729 9.2746582 C14.85986233 9.27533552 13.43450422 9.27351268 12.00915527 9.26931763 C9.81914452 9.26392954 7.62933576 9.26929472 5.43933105 9.27566528 C4.05261185 9.27500507 2.66589277 9.2737251 1.2791748 9.27175903 C0.01750488 9.2706311 -1.24416504 9.26950317 -2.54406738 9.26834106 C-5.4239502 9.13894653 -5.4239502 9.13894653 -6.4239502 8.13894653 C-6.5489502 4.63894653 -6.5489502 4.63894653 -6.4239502 1.13894653 C-4.66322436 -0.6217793 -2.34498729 0.0105987 0 0 Z " fill="#585D74" transform="translate(12.4239501953125,6.861053466796875)"/>
<path d="M0 0 C0.78246094 -0.01417969 1.56492187 -0.02835938 2.37109375 -0.04296875 C4.5625 0.1875 4.5625 0.1875 7.5625 2.1875 C7.2325 3.1775 6.9025 4.1675 6.5625 5.1875 C2.2725 5.1875 -2.0175 5.1875 -6.4375 5.1875 C-6.4375 3.8675 -6.4375 2.5475 -6.4375 1.1875 C-4.0978331 0.01766655 -2.60358473 0.0213759 0 0 Z M-4.4375 2.1875 C-4.1075 2.8475 -3.7775 3.5075 -3.4375 4.1875 C-0.7975 4.1875 1.8425 4.1875 4.5625 4.1875 C4.5625 3.5275 4.5625 2.8675 4.5625 2.1875 C1.5925 2.1875 -1.3775 2.1875 -4.4375 2.1875 Z " fill="#202230" transform="translate(24.4375,19.8125)"/>
<path d="M0 0 C1.65 0 3.3 0 5 0 C5 1.32 5 2.64 5 4 C1.7 4 -1.6 4 -5 4 C-5 3.67 -5 3.34 -5 3 C-2.36 3 0.28 3 3 3 C3 2.34 3 1.68 3 1 C2.01 0.67 1.02 0.34 0 0 Z " fill="#1A1C29" transform="translate(26,21)"/>
</svg>
