<?xml version="1.0" encoding="UTF-8"?>
<svg version="1.1" xmlns="http://www.w3.org/2000/svg" width="48" height="48">
<path d="M0 0 C0 0.99 0 1.98 0 3 C3.3 3 6.6 3 10 3 C10.33 2.01 10.66 1.02 11 0 C16.03212286 0.4792498 19.16698339 1.66694208 23 5 C27.14950473 11.27849899 28.99035064 19.55069657 29 27 C27.03858748 31.10165971 25.22437162 33.21637643 21 35 C18.2780915 35.23272824 15.74140478 35.13939346 13 35 C13 34.01 13 33.02 13 32 C10.51979503 32.11341491 8.04155031 32.24014686 5.5625 32.375 C4.85544922 32.4059375 4.14839844 32.436875 3.41992188 32.46875 C1.60760812 32.57280629 -0.19817988 32.77919892 -2 33 C-2.33 33.66 -2.66 34.32 -3 35 C-8.61717192 35.58512207 -11.6376024 34.46219464 -16.3984375 31.484375 C-18.36908662 29.65791971 -18.56385569 28.62425812 -19 26 C-18.71556226 22.96830997 -17.98240902 20.03060226 -17.3125 17.0625 C-17.15072266 16.26392578 -16.98894531 15.46535156 -16.82226562 14.64257812 C-15.76309277 9.85448211 -14.59034148 6.54301118 -11 3 C-6.96733087 0.91165349 -4.56397781 0 0 0 Z M-4 17 C-4 18.65 -4 20.3 -4 22 C-2.68 22.33 -1.36 22.66 0 23 C0 21.35 0 19.7 0 18 C-1.32 17.67 -2.64 17.34 -4 17 Z M11 17 C10.67 18.65 10.34 20.3 10 22 C11.32 22 12.64 22 14 22 C14 20.35 14 18.7 14 17 C13.01 17 12.02 17 11 17 Z " fill="#575B73" transform="translate(19,6)"/>
<path d="M0 0 C0 0.99 0 1.98 0 3 C3.3 3 6.6 3 10 3 C10.33 2.01 10.66 1.02 11 0 C16.03212286 0.4792498 19.16698339 1.66694208 23 5 C27.14950473 11.27849899 28.99035064 19.55069657 29 27 C27.03858748 31.10165971 25.22437162 33.21637643 21 35 C18.2780915 35.23272824 15.74140478 35.13939346 13 35 C13 34.01 13 33.02 13 32 C10.51979503 32.11341491 8.04155031 32.24014686 5.5625 32.375 C4.85544922 32.4059375 4.14839844 32.436875 3.41992188 32.46875 C1.60760812 32.57280629 -0.19817988 32.77919892 -2 33 C-2.33 33.66 -2.66 34.32 -3 35 C-8.61717192 35.58512207 -11.6376024 34.46219464 -16.3984375 31.484375 C-18.36908662 29.65791971 -18.56385569 28.62425812 -19 26 C-18.71556226 22.96830997 -17.98240902 20.03060226 -17.3125 17.0625 C-17.15072266 16.26392578 -16.98894531 15.46535156 -16.82226562 14.64257812 C-15.76309277 9.85448211 -14.59034148 6.54301118 -11 3 C-6.96733087 0.91165349 -4.56397781 0 0 0 Z M-10 5 C-15.30696272 10.75343759 -16.50777759 17.62270235 -17.20703125 25.26171875 C-17.20859513 27.30564719 -17.20859513 27.30564719 -16 30 C-12.97453821 32.70188299 -10.08660934 33.90752261 -6.0625 34.25 C-5.381875 34.1675 -4.70125 34.085 -4 34 C-3.77390663 31.87635519 -3.77390663 31.87635519 -5.5 30.375 C-6.2425 29.694375 -6.2425 29.694375 -7 29 C-6.31679687 29.32355469 -5.63359375 29.64710937 -4.9296875 29.98046875 C1.51862738 32.22448233 10.05343279 32.23330058 16.375 29.5 C17.24125 29.005 18.1075 28.51 19 28 C18.34 28.61875 17.68 29.2375 17 29.875 C14.7715451 31.75637427 14.7715451 31.75637427 15 34 C18.69469088 33.71022032 21.62073383 33.17383033 25 31.625 C27.3867188 28.49243158 27.22877572 27.57365582 26.9375 23.75 C26.66322212 21.82749148 26.35181293 19.90984162 26 18 C25.85949219 17.23429687 25.71898437 16.46859375 25.57421875 15.6796875 C24.69283812 11.64832915 23.58580436 8.23225545 21 5 C17.27033452 2.69871705 15.43338303 2 11 2 C11 2.66 11 3.32 11 4 C7.04 4 3.08 4 -1 4 C-1 3.34 -1 2.68 -1 2 C-5.38746624 2 -6.54072205 2.49202349 -10 5 Z " fill="#1C1E2B" transform="translate(19,6)"/>
<path d="M0 0 C2.625 0.375 2.625 0.375 5 1 C5.625 4.375 5.625 4.375 6 8 C5.34 8.66 4.68 9.32 4 10 C1.375 9.625 1.375 9.625 -1 9 C-1.625 5.625 -1.625 5.625 -2 2 C-1.34 1.34 -0.68 0.68 0 0 Z M0 2 C0 3.65 0 5.3 0 7 C1.32 7.33 2.64 7.66 4 8 C4 6.35 4 4.7 4 3 C2.68 2.67 1.36 2.34 0 2 Z " fill="#1F212E" transform="translate(15,21)"/>
</svg>
