<?xml version="1.0" encoding="UTF-8"?>
<svg version="1.1" xmlns="http://www.w3.org/2000/svg" width="48" height="48">
<path d="M0 0 C5.87950796 2.66628849 10.04610306 6.83663093 12.7109375 12.7109375 C14.89341527 19.04208923 15.64116127 25.08432419 12.73046875 31.29296875 C8.9234288 37.2680857 3.59621974 40.57632453 -3.171875 42.3515625 C-9.63730092 42.78514136 -16.73564202 41.0041735 -21.859375 36.9765625 C-27.1136569 31.4595665 -27.83002578 27.49242399 -27.69921875 19.94921875 C-27.49356599 13.76753872 -26.92395919 9.94236943 -22.44921875 5.421875 C-15.58273187 -0.7841331 -9.288319 -2.55274992 0 0 Z " fill="#585D75" transform="translate(31.359375,3.6484375)"/>
<path d="M0 0 C5.87950796 2.66628849 10.04610306 6.83663093 12.7109375 12.7109375 C14.89341527 19.04208923 15.64116127 25.08432419 12.73046875 31.29296875 C8.9234288 37.2680857 3.59621974 40.57632453 -3.171875 42.3515625 C-9.63730092 42.78514136 -16.73564202 41.0041735 -21.859375 36.9765625 C-27.1136569 31.4595665 -27.83002578 27.49242399 -27.69921875 19.94921875 C-27.49356599 13.76753872 -26.92395919 9.94236943 -22.44921875 5.421875 C-15.58273187 -0.7841331 -9.288319 -2.55274992 0 0 Z M-11.359375 0.3515625 C-10.20764145 2.81956297 -9.31153935 4.39939815 -7.359375 6.3515625 C-5.33983059 6.01336097 -5.33983059 6.01336097 -3.359375 5.3515625 C-2.699375 5.3515625 -2.039375 5.3515625 -1.359375 5.3515625 C-1.93957013 8.71669424 -2.99388973 9.98607723 -5.359375 12.3515625 C-6.07385143 14.45489141 -6.07385143 14.45489141 -6.359375 16.3515625 C-8.009375 15.6915625 -9.659375 15.0315625 -11.359375 14.3515625 C-11.359375 15.0115625 -11.359375 15.6715625 -11.359375 16.3515625 C-10.885 16.8259375 -10.410625 17.3003125 -9.921875 17.7890625 C-8.359375 19.3515625 -8.359375 19.3515625 -7.359375 22.3515625 C-7.90207031 22.07441406 -8.44476562 21.79726563 -9.00390625 21.51171875 C-9.71933594 21.14949219 -10.43476563 20.78726562 -11.171875 20.4140625 C-11.87957031 20.05441406 -12.58726563 19.69476562 -13.31640625 19.32421875 C-15.47747785 18.24425734 -15.47747785 18.24425734 -18.359375 17.3515625 C-18.55596308 15.93612835 -18.74125046 14.51912219 -18.921875 13.1015625 C-19.02628906 12.31265625 -19.13070313 11.52375 -19.23828125 10.7109375 C-19.35964849 8.34623376 -19.05570757 6.6004588 -18.359375 4.3515625 C-23.13527704 7.4494449 -25.15358409 10.88896427 -26.359375 16.3515625 C-27.23710511 22.30257263 -27.03146329 27.0373134 -23.921875 32.2890625 C-20.55296309 36.7436901 -16.70914294 38.90594506 -11.359375 40.3515625 C-8.48026458 40.69358944 -8.48026458 40.69358944 -6.359375 40.3515625 C-5.47397176 37.37049259 -4.68795316 34.44881564 -4.359375 31.3515625 C-5.79928123 29.18123774 -5.79928123 29.18123774 -7.359375 27.3515625 C-6.546875 24.1015625 -6.546875 24.1015625 -5.359375 21.3515625 C2.896625 22.0395625 2.896625 22.0395625 6.640625 25.3515625 C7.300625 25.3515625 7.960625 25.3515625 8.640625 25.3515625 C7.980625 27.6615625 7.320625 29.9715625 6.640625 32.3515625 C5.980625 32.3515625 5.320625 32.3515625 4.640625 32.3515625 C3.980625 33.3415625 3.320625 34.3315625 2.640625 35.3515625 C1.3721875 35.8465625 1.3721875 35.8465625 0.078125 36.3515625 C-1.1284375 36.8465625 -1.1284375 36.8465625 -2.359375 37.3515625 C-2.689375 38.3415625 -3.019375 39.3315625 -3.359375 40.3515625 C2.63072565 39.00378985 6.49847589 35.70271913 10.640625 31.3515625 C13.66828595 26.43161345 13.17787695 20.74477574 11.953125 15.2890625 C9.73400978 10.32247129 6.614032 4.91362065 1.640625 2.3515625 C-0.35897512 2.3115705 -2.35984742 2.30809451 -4.359375 2.3515625 C-5.019375 1.6915625 -5.679375 1.0315625 -6.359375 0.3515625 C-8.94291718 0.18468802 -8.94291718 0.18468802 -11.359375 0.3515625 Z " fill="#1C1D2B" transform="translate(31.359375,3.6484375)"/>
<path d="M0 0 C0.94875 0.185625 1.8975 0.37125 2.875 0.5625 C3.535 1.5525 4.195 2.5425 4.875 3.5625 C5.65875 3.376875 6.4425 3.19125 7.25 3 C9.875 2.5625 9.875 2.5625 11.875 3.5625 C11.545 5.2125 11.215 6.8625 10.875 8.5625 C10.215 8.5625 9.555 8.5625 8.875 8.5625 C8.215 10.5425 7.555 12.5225 6.875 14.5625 C4.4 13.5725 4.4 13.5725 1.875 12.5625 C1.875 13.2225 1.875 13.8825 1.875 14.5625 C2.865 14.8925 3.855 15.2225 4.875 15.5625 C5.205 17.2125 5.535 18.8625 5.875 20.5625 C1.16874094 19.80949855 -3.70263999 17.47959393 -6.5625 13.625 C-7.71899473 9.38451933 -7.46827266 7.2622481 -5.5 3.25 C-3.125 0.5625 -3.125 0.5625 0 0 Z " fill="#303447" transform="translate(18.125,5.4375)"/>
<path d="M0 0 C5.99663333 0.30491356 9.26836992 1.33298669 14 5 C13.125 9.75 13.125 9.75 12 12 C11.34 12 10.68 12 10 12 C9.6596875 12.9590625 9.6596875 12.9590625 9.3125 13.9375 C8 16 8 16 5.4375 16.625 C4.633125 16.74875 3.82875 16.8725 3 17 C2.67 17.66 2.34 18.32 2 19 C1.34 19 0.68 19 0 19 C0.061875 17.7625 0.12375 16.525 0.1875 15.25 C0.23875575 11.78407241 0.23875575 11.78407241 -1.625 8.875 C-2.07875 8.25625 -2.5325 7.6375 -3 7 C-1.76923077 1.76923077 -1.76923077 1.76923077 0 0 Z " fill="#303447" transform="translate(26,24)"/>
<path d="M0 0 C0.66 0 1.32 0 2 0 C2.33 1.65 2.66 3.3 3 5 C0.07120629 4.37240135 -2.36095629 3.41377341 -5 2 C-2 1 -2 1 0 1 C0 0.67 0 0.34 0 0 Z " fill="#262939" transform="translate(21,21)"/>
<path d="M0 0 C2.97 0.495 2.97 0.495 6 1 C4.35 2.65 2.7 4.3 1 6 C0.01 5.67 -0.98 5.34 -2 5 C-1.34 5 -0.68 5 0 5 C0 3.35 0 1.7 0 0 Z " fill="#44485C" transform="translate(24,21)"/>
</svg>
